<mxfile host="app.diagrams.net" agent="Mozilla/5.0 (Windows NT 10.0; Win64; x64; rv:128.0) Gecko/20100101 Firefox/128.0" version="24.8.4">
  <diagram name="Page-1" id="2a216829-ef6e-dabb-86c1-c78162f3ba2b">
    <mxGraphModel dx="1434" dy="774" grid="1" gridSize="10" guides="1" tooltips="1" connect="1" arrows="1" fold="1" page="1" pageScale="1" pageWidth="850" pageHeight="1100" background="none" math="0" shadow="0">
      <root>
        <mxCell id="0" />
        <mxCell id="1" parent="0" />
        <mxCell id="ihhawm1Ix_6cRNDinuKR-9" value="" style="edgeStyle=orthogonalEdgeStyle;rounded=0;orthogonalLoop=1;jettySize=auto;html=1;" edge="1" parent="1" source="ihhawm1Ix_6cRNDinuKR-1" target="ihhawm1Ix_6cRNDinuKR-2">
          <mxGeometry relative="1" as="geometry" />
        </mxCell>
        <mxCell id="ihhawm1Ix_6cRNDinuKR-10" style="edgeStyle=orthogonalEdgeStyle;rounded=0;orthogonalLoop=1;jettySize=auto;html=1;exitX=1;exitY=0.5;exitDx=0;exitDy=0;entryX=0;entryY=0.5;entryDx=0;entryDy=0;" edge="1" parent="1" source="ihhawm1Ix_6cRNDinuKR-1" target="ihhawm1Ix_6cRNDinuKR-5">
          <mxGeometry relative="1" as="geometry" />
        </mxCell>
        <mxCell id="ihhawm1Ix_6cRNDinuKR-11" style="edgeStyle=orthogonalEdgeStyle;rounded=0;orthogonalLoop=1;jettySize=auto;html=1;exitX=1;exitY=0.5;exitDx=0;exitDy=0;entryX=0;entryY=0.5;entryDx=0;entryDy=0;" edge="1" parent="1" source="ihhawm1Ix_6cRNDinuKR-1" target="ihhawm1Ix_6cRNDinuKR-6">
          <mxGeometry relative="1" as="geometry" />
        </mxCell>
        <mxCell id="ihhawm1Ix_6cRNDinuKR-12" style="edgeStyle=orthogonalEdgeStyle;rounded=0;orthogonalLoop=1;jettySize=auto;html=1;exitX=1;exitY=0.5;exitDx=0;exitDy=0;entryX=0;entryY=0.5;entryDx=0;entryDy=0;" edge="1" parent="1" source="ihhawm1Ix_6cRNDinuKR-1" target="ihhawm1Ix_6cRNDinuKR-7">
          <mxGeometry relative="1" as="geometry" />
        </mxCell>
        <mxCell id="ihhawm1Ix_6cRNDinuKR-13" style="edgeStyle=orthogonalEdgeStyle;rounded=0;orthogonalLoop=1;jettySize=auto;html=1;exitX=1;exitY=0.5;exitDx=0;exitDy=0;entryX=0;entryY=0.5;entryDx=0;entryDy=0;" edge="1" parent="1" source="ihhawm1Ix_6cRNDinuKR-1" target="ihhawm1Ix_6cRNDinuKR-8">
          <mxGeometry relative="1" as="geometry" />
        </mxCell>
        <mxCell id="ihhawm1Ix_6cRNDinuKR-20" style="edgeStyle=orthogonalEdgeStyle;rounded=0;orthogonalLoop=1;jettySize=auto;html=1;exitX=1;exitY=0.5;exitDx=0;exitDy=0;entryX=0;entryY=0.5;entryDx=0;entryDy=0;" edge="1" parent="1" source="ihhawm1Ix_6cRNDinuKR-1" target="ihhawm1Ix_6cRNDinuKR-19">
          <mxGeometry relative="1" as="geometry" />
        </mxCell>
        <mxCell id="ihhawm1Ix_6cRNDinuKR-1" value="Jouer à un jeu vidéo de son enfance sur console portable" style="rounded=0;whiteSpace=wrap;html=1;" vertex="1" parent="1">
          <mxGeometry x="130" y="70" width="120" height="60" as="geometry" />
        </mxCell>
        <mxCell id="ihhawm1Ix_6cRNDinuKR-18" value="" style="edgeStyle=orthogonalEdgeStyle;rounded=0;orthogonalLoop=1;jettySize=auto;html=1;" edge="1" parent="1" source="ihhawm1Ix_6cRNDinuKR-2" target="ihhawm1Ix_6cRNDinuKR-17">
          <mxGeometry relative="1" as="geometry" />
        </mxCell>
        <mxCell id="ihhawm1Ix_6cRNDinuKR-2" value="Allumer la console" style="rounded=0;whiteSpace=wrap;html=1;" vertex="1" parent="1">
          <mxGeometry x="330" y="70" width="120" height="60" as="geometry" />
        </mxCell>
        <mxCell id="ihhawm1Ix_6cRNDinuKR-4" value="Ecran rétroéclairé" style="whiteSpace=wrap;html=1;" vertex="1" parent="1">
          <mxGeometry x="530" y="150" width="120" height="60" as="geometry" />
        </mxCell>
        <mxCell id="ihhawm1Ix_6cRNDinuKR-16" style="edgeStyle=orthogonalEdgeStyle;rounded=0;orthogonalLoop=1;jettySize=auto;html=1;exitX=1;exitY=0.5;exitDx=0;exitDy=0;entryX=0;entryY=0.5;entryDx=0;entryDy=0;" edge="1" parent="1" source="ihhawm1Ix_6cRNDinuKR-5" target="ihhawm1Ix_6cRNDinuKR-4">
          <mxGeometry relative="1" as="geometry" />
        </mxCell>
        <mxCell id="ihhawm1Ix_6cRNDinuKR-5" value="Affichage" style="whiteSpace=wrap;html=1;" vertex="1" parent="1">
          <mxGeometry x="330" y="150" width="120" height="60" as="geometry" />
        </mxCell>
        <mxCell id="ihhawm1Ix_6cRNDinuKR-24" value="" style="edgeStyle=orthogonalEdgeStyle;rounded=0;orthogonalLoop=1;jettySize=auto;html=1;" edge="1" parent="1" source="ihhawm1Ix_6cRNDinuKR-6" target="ihhawm1Ix_6cRNDinuKR-23">
          <mxGeometry relative="1" as="geometry" />
        </mxCell>
        <mxCell id="ihhawm1Ix_6cRNDinuKR-6" value="Charge" style="whiteSpace=wrap;html=1;" vertex="1" parent="1">
          <mxGeometry x="330" y="240" width="120" height="60" as="geometry" />
        </mxCell>
        <mxCell id="ihhawm1Ix_6cRNDinuKR-27" value="" style="edgeStyle=orthogonalEdgeStyle;rounded=0;orthogonalLoop=1;jettySize=auto;html=1;" edge="1" parent="1" source="ihhawm1Ix_6cRNDinuKR-7" target="ihhawm1Ix_6cRNDinuKR-25">
          <mxGeometry relative="1" as="geometry" />
        </mxCell>
        <mxCell id="ihhawm1Ix_6cRNDinuKR-28" style="edgeStyle=orthogonalEdgeStyle;rounded=0;orthogonalLoop=1;jettySize=auto;html=1;exitX=1;exitY=0.5;exitDx=0;exitDy=0;entryX=0;entryY=0.5;entryDx=0;entryDy=0;" edge="1" parent="1" source="ihhawm1Ix_6cRNDinuKR-7" target="ihhawm1Ix_6cRNDinuKR-26">
          <mxGeometry relative="1" as="geometry" />
        </mxCell>
        <mxCell id="ihhawm1Ix_6cRNDinuKR-7" value="Produire du son" style="whiteSpace=wrap;html=1;" vertex="1" parent="1">
          <mxGeometry x="330" y="320" width="120" height="60" as="geometry" />
        </mxCell>
        <mxCell id="ihhawm1Ix_6cRNDinuKR-31" value="" style="edgeStyle=orthogonalEdgeStyle;rounded=0;orthogonalLoop=1;jettySize=auto;html=1;" edge="1" parent="1" source="ihhawm1Ix_6cRNDinuKR-8" target="ihhawm1Ix_6cRNDinuKR-30">
          <mxGeometry relative="1" as="geometry" />
        </mxCell>
        <mxCell id="ihhawm1Ix_6cRNDinuKR-33" style="edgeStyle=orthogonalEdgeStyle;rounded=0;orthogonalLoop=1;jettySize=auto;html=1;exitX=1;exitY=0.5;exitDx=0;exitDy=0;entryX=0;entryY=0.5;entryDx=0;entryDy=0;" edge="1" parent="1" source="ihhawm1Ix_6cRNDinuKR-8" target="ihhawm1Ix_6cRNDinuKR-32">
          <mxGeometry relative="1" as="geometry" />
        </mxCell>
        <mxCell id="ihhawm1Ix_6cRNDinuKR-40" style="edgeStyle=orthogonalEdgeStyle;rounded=0;orthogonalLoop=1;jettySize=auto;html=1;exitX=1;exitY=0.5;exitDx=0;exitDy=0;entryX=0;entryY=0.5;entryDx=0;entryDy=0;" edge="1" parent="1" source="ihhawm1Ix_6cRNDinuKR-8" target="ihhawm1Ix_6cRNDinuKR-39">
          <mxGeometry relative="1" as="geometry" />
        </mxCell>
        <mxCell id="ihhawm1Ix_6cRNDinuKR-8" value="Stockage" style="whiteSpace=wrap;html=1;" vertex="1" parent="1">
          <mxGeometry x="330" y="480" width="120" height="60" as="geometry" />
        </mxCell>
        <mxCell id="ihhawm1Ix_6cRNDinuKR-17" value="Bouton ON/OFF" style="whiteSpace=wrap;html=1;" vertex="1" parent="1">
          <mxGeometry x="530" y="70" width="120" height="60" as="geometry" />
        </mxCell>
        <mxCell id="ihhawm1Ix_6cRNDinuKR-34" value="" style="edgeStyle=orthogonalEdgeStyle;rounded=0;orthogonalLoop=1;jettySize=auto;html=1;" edge="1" parent="1" source="ihhawm1Ix_6cRNDinuKR-19" target="ihhawm1Ix_6cRNDinuKR-29">
          <mxGeometry relative="1" as="geometry" />
        </mxCell>
        <mxCell id="ihhawm1Ix_6cRNDinuKR-37" style="edgeStyle=orthogonalEdgeStyle;rounded=0;orthogonalLoop=1;jettySize=auto;html=1;exitX=1;exitY=0.5;exitDx=0;exitDy=0;entryX=0;entryY=0.5;entryDx=0;entryDy=0;" edge="1" parent="1" source="ihhawm1Ix_6cRNDinuKR-19" target="ihhawm1Ix_6cRNDinuKR-35">
          <mxGeometry relative="1" as="geometry" />
        </mxCell>
        <mxCell id="ihhawm1Ix_6cRNDinuKR-38" style="edgeStyle=orthogonalEdgeStyle;rounded=0;orthogonalLoop=1;jettySize=auto;html=1;exitX=1;exitY=0.5;exitDx=0;exitDy=0;entryX=0;entryY=0.5;entryDx=0;entryDy=0;" edge="1" parent="1" source="ihhawm1Ix_6cRNDinuKR-19" target="ihhawm1Ix_6cRNDinuKR-36">
          <mxGeometry relative="1" as="geometry" />
        </mxCell>
        <mxCell id="ihhawm1Ix_6cRNDinuKR-19" value="Controle" style="whiteSpace=wrap;html=1;" vertex="1" parent="1">
          <mxGeometry x="330" y="740" width="120" height="60" as="geometry" />
        </mxCell>
        <mxCell id="ihhawm1Ix_6cRNDinuKR-23" value="Port USB" style="whiteSpace=wrap;html=1;" vertex="1" parent="1">
          <mxGeometry x="530" y="240" width="120" height="60" as="geometry" />
        </mxCell>
        <mxCell id="ihhawm1Ix_6cRNDinuKR-25" value="Haut-parleur" style="whiteSpace=wrap;html=1;" vertex="1" parent="1">
          <mxGeometry x="530" y="320" width="120" height="60" as="geometry" />
        </mxCell>
        <mxCell id="ihhawm1Ix_6cRNDinuKR-26" value="Prise jack" style="whiteSpace=wrap;html=1;" vertex="1" parent="1">
          <mxGeometry x="530" y="400" width="120" height="60" as="geometry" />
        </mxCell>
        <mxCell id="ihhawm1Ix_6cRNDinuKR-29" value="Processeur" style="whiteSpace=wrap;html=1;" vertex="1" parent="1">
          <mxGeometry x="540" y="740" width="120" height="60" as="geometry" />
        </mxCell>
        <mxCell id="ihhawm1Ix_6cRNDinuKR-30" value="6Go de stockage" style="whiteSpace=wrap;html=1;" vertex="1" parent="1">
          <mxGeometry x="530" y="480" width="120" height="60" as="geometry" />
        </mxCell>
        <mxCell id="ihhawm1Ix_6cRNDinuKR-32" value="1Go RAM" style="whiteSpace=wrap;html=1;" vertex="1" parent="1">
          <mxGeometry x="530" y="560" width="120" height="60" as="geometry" />
        </mxCell>
        <mxCell id="ihhawm1Ix_6cRNDinuKR-35" value="Croix directionelle" style="whiteSpace=wrap;html=1;" vertex="1" parent="1">
          <mxGeometry x="540" y="820" width="120" height="60" as="geometry" />
        </mxCell>
        <mxCell id="ihhawm1Ix_6cRNDinuKR-36" value="Boutons A/B" style="whiteSpace=wrap;html=1;" vertex="1" parent="1">
          <mxGeometry x="540" y="900" width="120" height="60" as="geometry" />
        </mxCell>
        <mxCell id="ihhawm1Ix_6cRNDinuKR-39" value="Carte SD" style="whiteSpace=wrap;html=1;" vertex="1" parent="1">
          <mxGeometry x="530" y="640" width="120" height="60" as="geometry" />
        </mxCell>
      </root>
    </mxGraphModel>
  </diagram>
</mxfile>
